<svg width="73" height="73" viewBox="0 0 73 73" fill="none" xmlns="http://www.w3.org/2000/svg">
<path d="M41 15.001C41.8957 15 42.7828 15.1748 43.6104 15.5176C44.439 15.8609 45.1921 16.3647 45.8252 17H45.8242L46.6943 17.8701L44.833 20L46.8662 22.3164L46.749 23.5811L43 19.832V27H50.1416L51.167 28.7246L54 27.5L54.9072 27.8896C54.9675 28.256 55.0004 28.627 55 29V43.5518C53.8643 42.5884 52.4383 42.0524 51 42.0039V31H43C41.9391 31 40.922 30.5783 40.1719 29.8281C39.4217 29.078 39 28.0609 39 27V19H25C24.4696 19 23.961 19.2109 23.5859 19.5859C23.2109 19.961 23 20.4696 23 21V53C23 53.5304 23.2109 54.039 23.5859 54.4141C23.961 54.7891 24.4696 55 25 55H40.0361C39.9636 55.2289 39.9033 55.4619 39.8604 55.6992C39.7217 56.4814 39.7412 57.2922 39.917 58.0635C39.9897 58.3841 40.0903 58.697 40.2139 59H25C23.4087 59 21.883 58.3674 20.7578 57.2422C19.6326 56.117 19 54.5913 19 53V21C19 19.4087 19.6326 17.883 20.7578 16.7578C21.883 15.6326 23.4087 15 25 15H41V15.001ZM41.5088 47C41.3179 47.2069 41.1418 47.4278 40.9834 47.6621C40.5461 48.309 40.248 49.0402 40.1094 49.8086C40.0476 50.1533 40.0162 50.5048 40.0156 50.8574C40.0158 50.905 40.0192 50.9525 40.0205 51H37C35.8954 51 35 50.1046 35 49C35 47.8954 35.8954 47 37 47H41.5088ZM27.5859 35.5859C28.367 34.8049 29.633 34.8049 30.4141 35.5859L34.4141 39.5859C35.1951 40.367 35.1951 41.633 34.4141 42.4141L30.4141 46.4141C29.633 47.1951 28.367 47.1951 27.5859 46.4141C26.8049 45.633 26.8049 44.367 27.5859 43.5859L30.1719 41L27.5859 38.4141C26.8049 37.633 26.8049 36.367 27.5859 35.5859Z" fill="#595959"/>
<g clip-path="url(#clip0_16_142)">
<path d="M54.6665 46.2493C53.089 43.9899 49.9729 43.3203 47.7204 44.7565L43.7636 47.2799C43.2282 47.6159 42.7688 48.0599 42.4148 48.5835C42.0607 49.1071 41.8199 49.6989 41.7077 50.3209C41.6576 50.6001 41.6322 50.8848 41.6317 51.1704C41.6341 51.9448 41.8238 52.7071 42.1846 53.3924C41.8464 53.9067 41.6156 54.4841 41.5061 55.0898C41.3938 55.7231 41.4096 56.3795 41.5519 57.0039C41.6944 57.6325 41.9608 58.2263 42.3355 58.7507C43.913 61.0098 47.0363 61.6796 49.2816 60.2435L53.2343 57.7199C53.7694 57.3836 54.2282 56.939 54.5813 56.4148C54.9344 55.8906 55.174 55.2984 55.2847 54.6761C55.3356 54.3963 55.361 54.1124 55.3607 53.828C55.3597 53.0551 55.1723 52.2938 54.8145 51.6087C55.1527 51.0948 55.3837 50.518 55.4935 49.9127C55.5425 49.6324 55.5675 49.3489 55.5681 49.0645C55.5684 48.0559 55.2533 47.0724 54.6667 46.2518L54.6665 46.2493Z" fill="#FF3E00"/>
<path d="M47.3338 58.9629C47.0739 59.0299 46.8088 59.0637 46.543 59.0639C46.0354 59.0638 45.5355 58.9406 45.0859 58.705C44.6364 58.4694 44.2506 58.1283 43.9618 57.7109C43.6091 57.2172 43.4197 56.6256 43.4199 56.0189C43.4201 55.8478 43.435 55.6772 43.4641 55.5098C43.4879 55.3838 43.5199 55.2603 43.5598 55.1403L43.6343 54.9135L43.8362 55.067C44.3047 55.411 44.8283 55.673 45.3845 55.8418L45.5311 55.886L45.5173 56.0327V56.1088C45.517 56.2922 45.574 56.4712 45.6804 56.6206C45.7663 56.7479 45.882 56.8522 46.0175 56.9245C46.1561 56.9977 46.3059 57.0355 46.4573 57.0357C46.5373 57.036 46.617 57.0258 46.6951 57.0053C46.7798 56.9831 46.8617 56.9472 46.9385 56.8987L50.891 54.3628C51.0095 54.2876 51.1071 54.1835 51.1745 54.0604C51.2419 53.9372 51.2771 53.799 51.2767 53.6586C51.2756 53.4752 51.2171 53.2967 51.1094 53.1481C51.0221 53.0225 50.9058 52.9199 50.7703 52.849C50.6316 52.7774 50.4821 52.7408 50.3311 52.7414C50.2512 52.7412 50.1714 52.7514 50.0934 52.772C50.0089 52.7936 49.9275 52.8295 49.8514 52.8784L48.3445 53.8413C48.0909 54.001 47.8208 54.1197 47.5412 54.194C46.9187 54.3561 46.2615 54.3231 45.6584 54.0994C45.0553 53.8757 44.5354 53.4722 44.1691 52.9435C43.8168 52.4496 43.6273 51.8581 43.6272 51.2514C43.6275 51.0808 43.6424 50.9105 43.6715 50.7424C43.7391 50.3685 43.8836 50.0127 44.0959 49.6977C44.3082 49.3826 44.5836 49.1151 44.9048 48.9121L48.8615 46.39C49.1098 46.2319 49.3806 46.1125 49.6648 46.0357C49.9231 45.9696 50.1888 45.9361 50.4555 45.9361C50.9641 45.9351 51.4654 46.0574 51.9164 46.2925C52.3674 46.5277 52.7546 46.8688 53.0448 47.2864C53.3951 47.7815 53.5821 48.3734 53.5799 48.9798C53.5797 49.1513 53.5648 49.3224 53.5356 49.4903C53.5119 49.6163 53.48 49.7398 53.4402 49.8597L53.3656 50.0865L53.1637 49.9386C52.6955 49.5939 52.1719 49.3319 51.6154 49.1637L51.4688 49.1182L51.4826 48.9714V48.8955C51.4825 48.7116 51.4256 48.5323 51.3195 48.3821C51.2325 48.2566 51.1162 48.154 50.9808 48.0833C50.8424 48.0117 50.6932 47.975 50.5425 47.9753C50.4633 47.977 50.3845 47.9891 50.3074 48.0113C50.2226 48.0327 50.1407 48.0685 50.0643 48.1178L46.1074 50.64C46.0136 50.6985 45.9306 50.7794 45.8635 50.8777C45.801 50.9694 45.7572 51.0776 45.7356 51.1934C45.7259 51.2415 45.7198 51.2906 45.7176 51.34C45.7175 51.523 45.7745 51.7015 45.8807 51.8505C45.9677 51.9761 46.0838 52.0786 46.2192 52.1494C46.3577 52.221 46.5069 52.2577 46.6576 52.2572C46.7376 52.2575 46.8173 52.2472 46.8954 52.2267C46.9803 52.2052 47.0622 52.1693 47.1388 52.1203L48.6485 51.1518C48.902 50.9918 49.1721 50.8731 49.4517 50.7991C49.7116 50.7322 49.9767 50.6983 50.2425 50.6981C50.7502 50.698 51.2503 50.821 51.7 51.0564C52.1498 51.2917 52.5359 51.6326 52.8252 52.0498C53.0508 52.3659 53.2109 52.724 53.2961 53.1029C53.3814 53.4818 53.39 53.874 53.3215 54.2563C53.2543 54.6303 53.1099 54.9862 52.8976 55.3013C52.6852 55.6164 52.4096 55.8839 52.0882 56.0866L48.1384 58.6087C47.8845 58.7692 47.6138 58.8883 47.3338 58.9629Z" fill="white"/>
</g>
<path d="M61.3334 20L59.7334 18.1333L59.9334 15.6667L57.5334 15.1333L56.2667 13L54 14L51.7334 13L50.4667 15.1333L48.0667 15.6667L48.2667 18.1333L46.6667 20L48.2667 21.8667L48.0667 24.3333L50.4667 24.8667L51.7334 27L54 26L56.2667 27L57.5334 24.8667L59.9334 24.3333L59.7334 21.8667L61.3334 20ZM58.4667 23.2667L56.6667 23.6667L55.7334 25.2667L54 24.5333L52.2667 25.2667L51.3334 23.6667L49.5334 23.2667L49.6667 21.4L48.4667 20L49.6667 18.6L49.5334 16.7333L51.3334 16.3333L52.2667 14.7333L54 15.4667L55.7334 14.7333L56.6667 16.3333L58.4667 16.7333L58.3334 18.6L59.5334 20L58.3334 21.4L58.4667 23.2667ZM57.0667 17.0667L58 18L52.6667 23.3333L50 20.6667L50.9334 19.7333L52.6667 21.4667L57.0667 17.0667Z" fill="#85EA2D"/>
<circle cx="36.5" cy="36.5" r="35" stroke="#595959" stroke-width="3"/>
<defs>
<clipPath id="clip0_16_142">
<rect width="17" height="17" fill="white" transform="translate(40 44)"/>
</clipPath>
</defs>
</svg>
