<svg width="155" height="73" viewBox="0 0 155 73" fill="none" xmlns="http://www.w3.org/2000/svg">
<path d="M41 15.001C41.8957 15 42.7828 15.1748 43.6104 15.5176C44.439 15.8609 45.1921 16.3647 45.8252 17H45.8242L46.6943 17.8701L44.833 20L46.8662 22.3164L46.749 23.5811L43 19.832V27H50.1416L51.167 28.7246L54 27.5L54.9072 27.8896C54.9675 28.256 55.0004 28.627 55 29V43.5518C53.8643 42.5884 52.4383 42.0524 51 42.0039V31H43C41.9391 31 40.922 30.5783 40.1719 29.8281C39.4217 29.078 39 28.0609 39 27V19H25C24.4696 19 23.961 19.2109 23.5859 19.5859C23.2109 19.961 23 20.4696 23 21V53C23 53.5304 23.2109 54.039 23.5859 54.4141C23.961 54.7891 24.4696 55 25 55H40.0361C39.9636 55.2289 39.9033 55.4619 39.8604 55.6992C39.7217 56.4814 39.7412 57.2922 39.917 58.0635C39.9897 58.3841 40.0903 58.697 40.2139 59H25C23.4087 59 21.883 58.3674 20.7578 57.2422C19.6326 56.117 19 54.5913 19 53V21C19 19.4087 19.6326 17.883 20.7578 16.7578C21.883 15.6326 23.4087 15 25 15H41V15.001ZM41.5088 47C41.3179 47.2069 41.1418 47.4278 40.9834 47.6621C40.5461 48.309 40.248 49.0402 40.1094 49.8086C40.0476 50.1533 40.0162 50.5048 40.0156 50.8574C40.0158 50.905 40.0192 50.9525 40.0205 51H37C35.8954 51 35 50.1046 35 49C35 47.8954 35.8954 47 37 47H41.5088ZM27.5859 35.5859C28.367 34.8049 29.633 34.8049 30.4141 35.5859L34.4141 39.5859C35.1951 40.367 35.1951 41.633 34.4141 42.4141L30.4141 46.4141C29.633 47.1951 28.367 47.1951 27.5859 46.4141C26.8049 45.633 26.8049 44.367 27.5859 43.5859L30.1719 41L27.5859 38.4141C26.8049 37.633 26.8049 36.367 27.5859 35.5859Z" fill="#161616"/>
<g clip-path="url(#clip0_15_179)">
<path d="M54.6665 46.2493C53.0891 43.9899 49.9729 43.3203 47.7204 44.7565L43.7636 47.2799C43.2282 47.6159 42.7688 48.0599 42.4148 48.5835C42.0608 49.1071 41.8199 49.6989 41.7077 50.3209C41.6577 50.6001 41.6322 50.8848 41.6317 51.1704C41.6341 51.9448 41.8238 52.7071 42.1846 53.3924C41.8464 53.9067 41.6156 54.4841 41.5061 55.0898C41.3939 55.7231 41.4096 56.3795 41.5519 57.0039C41.6944 57.6325 41.9608 58.2263 42.3355 58.7507C43.9131 61.0098 47.0363 61.6796 49.2816 60.2435L53.2344 57.7199C53.7695 57.3836 54.2283 56.939 54.5814 56.4148C54.9345 55.8906 55.1741 55.2984 55.2847 54.6761C55.3356 54.3963 55.361 54.1124 55.3607 53.828C55.3597 53.0551 55.1724 52.2938 54.8146 51.6087C55.1528 51.0948 55.3837 50.518 55.4935 49.9127C55.5425 49.6324 55.5675 49.3489 55.5682 49.0645C55.5685 48.0559 55.2533 47.0724 54.6668 46.2518L54.6665 46.2493Z" fill="#FF3E00"/>
<path d="M47.3338 58.9629C47.0739 59.0299 46.8088 59.0637 46.543 59.0639C46.0354 59.0638 45.5355 58.9406 45.0859 58.705C44.6364 58.4694 44.2506 58.1283 43.9618 57.7109C43.6091 57.2172 43.4197 56.6256 43.4199 56.0189C43.4201 55.8478 43.435 55.6772 43.4641 55.5098C43.4879 55.3838 43.5199 55.2603 43.5598 55.1403L43.6343 54.9135L43.8362 55.067C44.3047 55.411 44.8283 55.673 45.3845 55.8418L45.5311 55.886L45.5173 56.0327V56.1088C45.517 56.2922 45.574 56.4712 45.6804 56.6206C45.7663 56.7479 45.882 56.8522 46.0175 56.9245C46.1561 56.9977 46.3059 57.0355 46.4573 57.0357C46.5373 57.036 46.617 57.0258 46.6951 57.0053C46.7798 56.9831 46.8617 56.9472 46.9385 56.8987L50.891 54.3628C51.0095 54.2876 51.1071 54.1835 51.1745 54.0604C51.2419 53.9372 51.2771 53.799 51.2767 53.6586C51.2756 53.4752 51.2171 53.2967 51.1094 53.1481C51.0221 53.0225 50.9058 52.9199 50.7703 52.849C50.6316 52.7774 50.4821 52.7408 50.3311 52.7414C50.2512 52.7412 50.1714 52.7514 50.0934 52.772C50.0089 52.7936 49.9275 52.8295 49.8514 52.8784L48.3445 53.8413C48.0909 54.001 47.8208 54.1197 47.5412 54.194C46.9187 54.3561 46.2615 54.3231 45.6584 54.0994C45.0553 53.8757 44.5354 53.4722 44.1691 52.9435C43.8168 52.4496 43.6273 51.8581 43.6272 51.2514C43.6275 51.0808 43.6424 50.9105 43.6715 50.7424C43.7391 50.3685 43.8836 50.0127 44.0959 49.6977C44.3082 49.3826 44.5836 49.1151 44.9048 48.9121L48.8615 46.39C49.1098 46.2319 49.3806 46.1125 49.6648 46.0357C49.9231 45.9696 50.1888 45.9361 50.4555 45.9361C50.9641 45.9351 51.4654 46.0574 51.9164 46.2925C52.3674 46.5277 52.7546 46.8688 53.0448 47.2864C53.3951 47.7815 53.5821 48.3734 53.5799 48.9798C53.5797 49.1513 53.5648 49.3224 53.5356 49.4903C53.5119 49.6163 53.48 49.7398 53.4402 49.8597L53.3656 50.0865L53.1637 49.9386C52.6955 49.5939 52.1719 49.3319 51.6154 49.1637L51.4688 49.1182L51.4826 48.9714V48.8955C51.4825 48.7116 51.4256 48.5323 51.3195 48.3821C51.2325 48.2566 51.1162 48.154 50.9808 48.0833C50.8424 48.0117 50.6932 47.975 50.5425 47.9753C50.4633 47.977 50.3845 47.9891 50.3074 48.0113C50.2226 48.0327 50.1407 48.0685 50.0643 48.1178L46.1074 50.64C46.0136 50.6985 45.9306 50.7794 45.8635 50.8777C45.801 50.9694 45.7572 51.0776 45.7356 51.1934C45.7259 51.2415 45.7198 51.2906 45.7176 51.34C45.7175 51.523 45.7745 51.7015 45.8807 51.8505C45.9677 51.9761 46.0838 52.0786 46.2192 52.1494C46.3577 52.221 46.5069 52.2577 46.6576 52.2572C46.7376 52.2575 46.8173 52.2472 46.8954 52.2267C46.9803 52.2052 47.0622 52.1693 47.1388 52.1203L48.6485 51.1518C48.902 50.9918 49.1721 50.8731 49.4517 50.7991C49.7116 50.7322 49.9767 50.6983 50.2425 50.6981C50.7502 50.698 51.2503 50.821 51.7 51.0564C52.1498 51.2917 52.5359 51.6326 52.8252 52.0498C53.0508 52.3659 53.2109 52.724 53.2961 53.1029C53.3814 53.4818 53.39 53.874 53.3215 54.2563C53.2543 54.6303 53.1099 54.9862 52.8976 55.3013C52.6852 55.6164 52.4096 55.8839 52.0882 56.0866L48.1384 58.6087C47.8845 58.7692 47.6138 58.8883 47.3338 58.9629Z" fill="white"/>
</g>
<path d="M61.3334 20L59.7334 18.1333L59.9334 15.6667L57.5334 15.1333L56.2667 13L54 14L51.7334 13L50.4667 15.1333L48.0667 15.6667L48.2667 18.1333L46.6667 20L48.2667 21.8667L48.0667 24.3333L50.4667 24.8667L51.7334 27L54 26L56.2667 27L57.5334 24.8667L59.9334 24.3333L59.7334 21.8667L61.3334 20ZM58.4667 23.2667L56.6667 23.6667L55.7334 25.2667L54 24.5333L52.2667 25.2667L51.3334 23.6667L49.5334 23.2667L49.6667 21.4L48.4667 20L49.6667 18.6L49.5334 16.7333L51.3334 16.3333L52.2667 14.7333L54 15.4667L55.7334 14.7333L56.6667 16.3333L58.4667 16.7333L58.3334 18.6L59.5334 20L58.3334 21.4L58.4667 23.2667ZM57.0667 17.0667L58 18L52.6667 23.3333L50 20.6667L50.9334 19.7333L52.6667 21.4667L57.0667 17.0667Z" fill="#85EA2D"/>
<circle cx="36.5" cy="36.5" r="35" stroke="black" stroke-width="3"/>
<path d="M83.228 37.14C82.528 37.14 81.9213 37.0233 81.408 36.79C80.8947 36.5567 80.498 36.2253 80.218 35.796C79.9473 35.3573 79.8073 34.844 79.798 34.256H81.548C81.548 34.676 81.6973 35.0073 81.996 35.25C82.304 35.4833 82.7193 35.6 83.242 35.6C83.746 35.6 84.138 35.4833 84.418 35.25C84.7073 35.0167 84.852 34.6947 84.852 34.284C84.852 33.9387 84.7493 33.64 84.544 33.388C84.348 33.1267 84.0633 32.9493 83.69 32.856L82.514 32.534C81.7113 32.3287 81.0907 31.96 80.652 31.428C80.2227 30.896 80.008 30.252 80.008 29.496C80.008 28.9173 80.1387 28.4133 80.4 27.984C80.6613 27.5547 81.03 27.2233 81.506 26.99C81.9913 26.7567 82.5607 26.64 83.214 26.64C84.2033 26.64 84.9873 26.8967 85.566 27.41C86.1447 27.914 86.4387 28.5953 86.448 29.454H84.698C84.698 29.0527 84.5673 28.74 84.306 28.516C84.0447 28.2827 83.676 28.166 83.2 28.166C82.7427 28.166 82.388 28.2733 82.136 28.488C81.884 28.7027 81.758 29.006 81.758 29.398C81.758 29.7527 81.8513 30.056 82.038 30.308C82.234 30.5507 82.514 30.7233 82.878 30.826L84.096 31.162C84.908 31.3673 85.5287 31.736 85.958 32.268C86.3873 32.7907 86.602 33.4393 86.602 34.214C86.602 34.7927 86.462 35.306 86.182 35.754C85.902 36.1927 85.51 36.5333 85.006 36.776C84.502 37.0187 83.9093 37.14 83.228 37.14ZM90.4745 37L87.9405 29.3H89.7325L91.2025 33.976C91.2865 34.256 91.3659 34.5453 91.4405 34.844C91.5245 35.1427 91.5852 35.3807 91.6225 35.558C91.6692 35.3807 91.7299 35.1427 91.8045 34.844C91.8792 34.5453 91.9539 34.2607 92.0285 33.99L93.4705 29.3H95.2485L92.7285 37H90.4745ZM100.003 37.14C99.3497 37.14 98.7804 37.014 98.2951 36.762C97.8097 36.51 97.4317 36.16 97.1611 35.712C96.8997 35.2547 96.7691 34.7227 96.7691 34.116V32.184C96.7691 31.5773 96.8997 31.05 97.1611 30.602C97.4317 30.1447 97.8097 29.79 98.2951 29.538C98.7804 29.286 99.3497 29.16 100.003 29.16C100.647 29.16 101.207 29.286 101.683 29.538C102.168 29.79 102.542 30.1447 102.803 30.602C103.074 31.05 103.209 31.5773 103.209 32.184V33.57H98.4631V34.116C98.4631 34.6573 98.5937 35.068 98.8551 35.348C99.1164 35.6187 99.5037 35.754 100.017 35.754C100.409 35.754 100.726 35.6887 100.969 35.558C101.212 35.418 101.366 35.2173 101.431 34.956H103.153C103.022 35.6187 102.668 36.1507 102.089 36.552C101.52 36.944 100.824 37.14 100.003 37.14ZM101.515 32.59V32.17C101.515 31.638 101.389 31.232 101.137 30.952C100.885 30.6627 100.507 30.518 100.003 30.518C99.4991 30.518 99.1164 30.6627 98.8551 30.952C98.5937 31.2413 98.4631 31.652 98.4631 32.184V32.478L101.641 32.45L101.515 32.59ZM109.56 37C109.056 37 108.612 36.8973 108.23 36.692C107.856 36.4867 107.562 36.1973 107.348 35.824C107.133 35.4413 107.026 35.0027 107.026 34.508V28.362H104.562V26.78H108.776V34.508C108.776 34.788 108.855 35.012 109.014 35.18C109.182 35.3387 109.406 35.418 109.686 35.418H112.01V37H109.56ZM117.618 37C116.881 37 116.302 36.7947 115.882 36.384C115.471 35.9733 115.266 35.4087 115.266 34.69V30.882H113.18V29.3H115.266V27.13H117.03V29.3H119.984V30.882H117.03V34.69C117.03 35.1753 117.268 35.418 117.744 35.418H119.844V37H117.618ZM125.187 37.14C124.533 37.14 123.964 37.014 123.479 36.762C122.993 36.51 122.615 36.16 122.345 35.712C122.083 35.2547 121.953 34.7227 121.953 34.116V32.184C121.953 31.5773 122.083 31.05 122.345 30.602C122.615 30.1447 122.993 29.79 123.479 29.538C123.964 29.286 124.533 29.16 125.187 29.16C125.831 29.16 126.391 29.286 126.867 29.538C127.352 29.79 127.725 30.1447 127.987 30.602C128.257 31.05 128.393 31.5773 128.393 32.184V33.57H123.647V34.116C123.647 34.6573 123.777 35.068 124.039 35.348C124.3 35.6187 124.687 35.754 125.201 35.754C125.593 35.754 125.91 35.6887 126.153 35.558C126.395 35.418 126.549 35.2173 126.615 34.956H128.337C128.206 35.6187 127.851 36.1507 127.273 36.552C126.703 36.944 126.008 37.14 125.187 37.14ZM126.699 32.59V32.17C126.699 31.638 126.573 31.232 126.321 30.952C126.069 30.6627 125.691 30.518 125.187 30.518C124.683 30.518 124.3 30.6627 124.039 30.952C123.777 31.2413 123.647 31.652 123.647 32.184V32.478L126.825 32.45L126.699 32.59ZM130.431 37V26.78H132.181V30.91H133.399L135.317 26.78H137.221L134.939 31.68L137.333 37H135.387L133.371 32.506H132.181V37H130.431ZM138.826 37V35.404H141.514V30.882H139.176V29.3H143.194V35.404H145.574V37H138.826ZM142.214 28.012C141.859 28.012 141.579 27.9233 141.374 27.746C141.168 27.5593 141.066 27.312 141.066 27.004C141.066 26.696 141.168 26.4533 141.374 26.276C141.579 26.0893 141.859 25.996 142.214 25.996C142.568 25.996 142.848 26.0893 143.054 26.276C143.259 26.4533 143.362 26.696 143.362 27.004C143.362 27.312 143.259 27.5593 143.054 27.746C142.848 27.9233 142.568 28.012 142.214 28.012ZM151.196 37C150.459 37 149.88 36.7947 149.46 36.384C149.05 35.9733 148.844 35.4087 148.844 34.69V30.882H146.758V29.3H148.844V27.13H150.608V29.3H153.562V30.882H150.608V34.69C150.608 35.1753 150.846 35.418 151.322 35.418H153.422V37H151.196Z" fill="black"/>
<path d="M81.55 48L83.48 40.7H84.53L86.45 48H85.65L85.14 46.02H82.86L82.36 48H81.55ZM83.02 45.34H84.97L84.35 42.9C84.25 42.4933 84.17 42.1533 84.11 41.88C84.05 41.6 84.0133 41.42 84 41.34C83.9867 41.42 83.95 41.6 83.89 41.88C83.83 42.1533 83.75 42.4933 83.65 42.9L83.02 45.34ZM89.9861 48.1C89.3661 48.1 88.8694 47.9133 88.4961 47.54C88.1294 47.1667 87.9461 46.66 87.9461 46.02V42.5H88.7361V46.02C88.7361 46.4533 88.8461 46.7933 89.0661 47.04C89.2928 47.28 89.5994 47.4 89.9861 47.4C90.3794 47.4 90.6894 47.28 90.9161 47.04C91.1428 46.7933 91.2561 46.4533 91.2561 46.02V42.5H92.0461V46.02C92.0461 46.66 91.8594 47.1667 91.4861 47.54C91.1128 47.9133 90.6128 48.1 89.9861 48.1ZM96.5922 48C96.1322 48 95.7755 47.88 95.5222 47.64C95.2689 47.3933 95.1422 47.0467 95.1422 46.6V43.22H93.5822V42.5H95.1422V40.95H95.9422V42.5H98.1522V43.22H95.9422V46.6C95.9422 47.0533 96.1589 47.28 96.5922 47.28H98.0522V48H96.5922ZM101.988 48.09C101.562 48.09 101.192 48.0067 100.878 47.84C100.565 47.6733 100.322 47.4333 100.148 47.12C99.9749 46.8067 99.8883 46.4367 99.8883 46.01V44.49C99.8883 44.0567 99.9749 43.6867 100.148 43.38C100.322 43.0667 100.565 42.8267 100.878 42.66C101.192 42.4933 101.562 42.41 101.988 42.41C102.415 42.41 102.785 42.4933 103.098 42.66C103.412 42.8267 103.655 43.0667 103.828 43.38C104.002 43.6867 104.088 44.0533 104.088 44.48V46.01C104.088 46.4367 104.002 46.8067 103.828 47.12C103.655 47.4333 103.412 47.6733 103.098 47.84C102.785 48.0067 102.415 48.09 101.988 48.09ZM101.988 47.38C102.402 47.38 102.722 47.2633 102.948 47.03C103.175 46.7967 103.288 46.4567 103.288 46.01V44.49C103.288 44.0433 103.172 43.7033 102.938 43.47C102.712 43.2367 102.395 43.12 101.988 43.12C101.582 43.12 101.262 43.2367 101.028 43.47C100.802 43.7033 100.688 44.0433 100.688 44.49V46.01C100.688 46.4567 100.802 46.7967 101.028 47.03C101.262 47.2633 101.582 47.38 101.988 47.38ZM113.98 48.1C113.554 48.1 113.184 48.0167 112.87 47.85C112.564 47.6833 112.327 47.4467 112.16 47.14C111.994 46.8267 111.91 46.4567 111.91 46.03V42.67C111.91 42.2433 111.994 41.8767 112.16 41.57C112.327 41.2567 112.564 41.0167 112.87 40.85C113.184 40.6833 113.554 40.6 113.98 40.6C114.407 40.6 114.774 40.6833 115.08 40.85C115.394 41.0167 115.634 41.2567 115.8 41.57C115.967 41.8767 116.05 42.2433 116.05 42.67V46.03C116.05 46.4567 115.967 46.8267 115.8 47.14C115.634 47.4467 115.394 47.6833 115.08 47.85C114.774 48.0167 114.407 48.1 113.98 48.1ZM113.98 47.39C114.394 47.39 114.71 47.2733 114.93 47.04C115.15 46.8 115.26 46.4633 115.26 46.03V42.67C115.26 42.2367 115.147 41.9033 114.92 41.67C114.7 41.43 114.387 41.31 113.98 41.31C113.574 41.31 113.257 41.43 113.03 41.67C112.81 41.9033 112.7 42.2367 112.7 42.67V46.03C112.7 46.4633 112.81 46.8 113.03 47.04C113.257 47.2733 113.574 47.39 113.98 47.39ZM117.947 49.8V42.5H118.737V43.47H118.947L118.707 43.8C118.707 43.3667 118.847 43.0267 119.127 42.78C119.413 42.5267 119.79 42.4 120.257 42.4C120.81 42.4 121.25 42.5833 121.577 42.95C121.91 43.31 122.077 43.8033 122.077 44.43V46.06C122.077 46.48 122 46.8433 121.847 47.15C121.693 47.45 121.48 47.6833 121.207 47.85C120.94 48.0167 120.623 48.1 120.257 48.1C119.797 48.1 119.423 47.9733 119.137 47.72C118.85 47.4667 118.707 47.1267 118.707 46.7L118.917 47.03H118.727L118.737 48.15V49.8H117.947ZM120.007 47.41C120.407 47.41 120.717 47.29 120.937 47.05C121.163 46.81 121.277 46.47 121.277 46.03V44.47C121.277 44.0233 121.163 43.6833 120.937 43.45C120.717 43.21 120.407 43.09 120.007 43.09C119.62 43.09 119.31 43.2133 119.077 43.46C118.85 43.7 118.737 44.0367 118.737 44.47V46.03C118.737 46.4633 118.85 46.8033 119.077 47.05C119.31 47.29 119.62 47.41 120.007 47.41ZM125.973 48.1C125.546 48.1 125.176 48.0167 124.863 47.85C124.549 47.6767 124.306 47.4333 124.133 47.12C123.959 46.8067 123.873 46.4433 123.873 46.03V44.47C123.873 44.05 123.959 43.6867 124.133 43.38C124.306 43.0667 124.549 42.8267 124.863 42.66C125.176 42.4867 125.546 42.4 125.973 42.4C126.399 42.4 126.769 42.4867 127.083 42.66C127.396 42.8267 127.639 43.0667 127.813 43.38C127.986 43.6867 128.073 44.05 128.073 44.47V45.44H124.653V46.03C124.653 46.4767 124.766 46.8233 124.993 47.07C125.226 47.31 125.553 47.43 125.973 47.43C126.326 47.43 126.613 47.36 126.833 47.22C127.059 47.08 127.203 46.8767 127.263 46.61H128.053C127.979 47.07 127.756 47.4333 127.383 47.7C127.009 47.9667 126.539 48.1 125.973 48.1ZM127.293 44.91V44.47C127.293 44.0233 127.179 43.68 126.953 43.44C126.726 43.1933 126.399 43.07 125.973 43.07C125.553 43.07 125.226 43.1933 124.993 43.44C124.766 43.68 124.653 44.0233 124.653 44.47V44.82H127.373L127.293 44.91ZM129.939 48V42.5H130.729V43.52H130.929L130.709 43.81C130.709 43.37 130.842 43.0267 131.109 42.78C131.382 42.5267 131.752 42.4 132.219 42.4C132.765 42.4 133.202 42.5733 133.529 42.92C133.855 43.26 134.019 43.7233 134.019 44.31V48H133.229V44.4C133.229 43.98 133.119 43.6567 132.899 43.43C132.679 43.2033 132.379 43.09 131.999 43.09C131.605 43.09 131.295 43.21 131.069 43.45C130.842 43.69 130.729 44.03 130.729 44.47V48H129.939ZM135.515 48L137.445 40.7H138.495L140.415 48H139.615L139.105 46.02H136.825L136.325 48H135.515ZM136.985 45.34H138.935L138.315 42.9C138.215 42.4933 138.135 42.1533 138.075 41.88C138.015 41.6 137.978 41.42 137.965 41.34C137.952 41.42 137.915 41.6 137.855 41.88C137.795 42.1533 137.715 42.4933 137.615 42.9L136.985 45.34ZM141.931 48V40.7H144.221C144.668 40.7 145.054 40.7867 145.381 40.96C145.714 41.1333 145.971 41.38 146.151 41.7C146.331 42.0133 146.421 42.3867 146.421 42.82C146.421 43.2467 146.331 43.62 146.151 43.94C145.971 44.2533 145.714 44.5 145.381 44.68C145.054 44.8533 144.668 44.94 144.221 44.94H142.721V48H141.931ZM142.721 44.22H144.221C144.641 44.22 144.974 44.0933 145.221 43.84C145.474 43.5867 145.601 43.2467 145.601 42.82C145.601 42.3867 145.474 42.0467 145.221 41.8C144.974 41.5467 144.641 41.42 144.221 41.42H142.721V44.22ZM148.047 48V47.28H149.557V41.42H148.047V40.7H151.867V41.42H150.367V47.28H151.867V48H148.047Z" fill="#606060"/>
<defs>
<clipPath id="clip0_15_179">
<rect width="17" height="17" fill="white" transform="translate(40 44)"/>
</clipPath>
</defs>
</svg>
